<?xml version="1.0" encoding="UTF-8" standalone="no"?>
<!-- Created with Inkscape (http://www.inkscape.org/) -->

<svg
   width="120"
   height="120"
   viewBox="0 0 31.75 31.75"
   version="1.1"
   id="svg1"
   xmlns:inkscape="http://www.inkscape.org/namespaces/inkscape"
   xmlns:sodipodi="http://sodipodi.sourceforge.net/DTD/sodipodi-0.dtd"
   xmlns="http://www.w3.org/2000/svg"
   xmlns:svg="http://www.w3.org/2000/svg">
  <sodipodi:namedview
     id="namedview1"
     pagecolor="#ffffff"
     bordercolor="#000000"
     borderopacity="0.25"
     inkscape:showpageshadow="2"
     inkscape:pageopacity="0.0"
     inkscape:pagecheckerboard="0"
     inkscape:deskcolor="#d1d1d1"
     inkscape:document-units="mm">
    <inkscape:page
       x="0"
       y="0"
       width="31.75"
       height="31.75"
       id="page2"
       margin="0"
       bleed="0" />
  </sodipodi:namedview>
  <defs
     id="defs1" />
  <g
     inkscape:label="Layer 1"
     inkscape:groupmode="layer"
     id="layer1">
    <path
       style="fill:#000000;stroke-width:0.264583"
       id="path9"
       d="M 8.3861949,4.9445137 C 8.3729101,5.1402109 8.3188904,5.3278968 8.2631684,5.5147368 8.1609987,5.942018 8.012931,6.3562552 7.8889568,6.777325 7.6557488,7.581257 7.5857782,8.4142547 7.538154,9.2458912 c -0.035426,0.7621968 -0.056817,1.5261038 0.0078,2.2874008 0.043446,0.511874 0.073276,0.653057 0.1498721,1.158053 0.083811,0.459727 0.18463,0.916046 0.2823568,1.372933 0,0 2.3944051,1.133606 2.3944051,1.133606 v 0 C 10.32227,15.065259 10.26723,14.934331 10.221636,14.80001 10.083337,14.39258 10.047991,14.213852 9.9414186,13.789876 9.9082144,13.602138 9.8692114,13.415333 9.8418056,13.226661 9.7070099,12.29868 9.7097153,11.356746 9.8035662,10.42509 9.8232432,10.259122 9.8397569,10.092748 9.8626008,9.9271861 9.9480625,9.3078042 10.088173,8.6958381 10.311538,8.1109904 10.46107,7.7072195 10.61453,7.3054116 10.794135,6.9138368 c 0.07316,-0.180893 0.134397,-0.3655367 0.195279,-0.5503243 z" />
    <path
       style="fill:#000000;stroke-width:0.264583"
       id="path10"
       d="m 19.621765,6.3750729 c -0.01832,0.055746 -0.03366,0.1125598 -0.05495,0.1672381 -0.03974,0.1020379 -0.237866,0.5425024 -0.263197,0.6040834 -0.06384,0.1551916 -0.125922,0.3111868 -0.182855,0.469042 -0.21404,0.5934649 -0.217729,0.6571488 -0.394284,1.2944911 -0.05886,0.2640439 -0.124117,0.5267418 -0.176573,0.7921318 -0.05588,0.2827176 -0.103104,0.5671257 -0.148349,0.8517397 -0.132535,0.833704 -0.233999,1.674819 -0.257228,2.519487 -0.007,0.254923 0.0017,0.510035 0.0025,0.765053 0.03661,0.981271 0.307723,1.926177 0.607793,2.85377 0,0 2.381676,1.097392 2.381676,1.097392 v 0 c -0.0694,-0.13768 -0.143652,-0.273017 -0.208195,-0.41304 -0.362687,-0.786832 -0.61167,-1.621979 -0.699779,-2.485691 -0.01506,-0.256329 -0.04029,-0.512262 -0.04518,-0.768986 -0.02622,-1.377979 0.180468,-2.758153 0.627468,-4.0619 0.08863,-0.214578 0.16777,-0.4333251 0.265888,-0.6437332 0.267449,-0.5735275 0.62173,-1.1246278 1.082418,-1.561602 z" />
    <path
       style="fill:#000000;stroke-width:0.264583"
       id="path11"
       d="m 3.1400033,16.184548 c 0.1308176,0.627289 0.267803,1.255265 0.5043879,1.853214 0.086452,0.2185 0.1901623,0.42977 0.2852438,0.644655 0.5244039,1.054502 1.2561758,1.989676 2.1199602,2.788319 0.6547633,0.605386 0.9182502,0.761191 1.6415834,1.281676 1.5653875,0.947819 2.9039584,1.870838 4.6687424,2.271327 0.737485,0.16736 1.421938,0.232321 2.178187,0.227238 0.382149,-0.0026 0.763059,-0.04382 1.144588,-0.06573 1.520179,-0.160198 3.00679,-0.540304 4.434963,-1.080804 0.799706,-0.302654 1.198119,-0.50298 1.969556,-0.859333 0.886557,-0.429316 1.758765,-0.887003 2.631329,-1.343754 0.461165,-0.241401 1.086227,-0.562938 1.54389,-0.819621 0.227802,-0.127764 0.451063,-0.263462 0.676594,-0.395194 0.203163,-0.129375 0.408474,-0.255436 0.609489,-0.388125 0.334229,-0.220622 0.71152,-0.491444 1.039185,-0.725078 0.364723,-0.260055 0.729988,-0.519055 1.090219,-0.785285 0.247602,-0.193322 0.500721,-0.377705 0.759941,-0.554921 0,0 -2.427893,-1.513727 -2.427893,-1.513727 v 0 c -0.201801,0.218643 -0.408766,0.432518 -0.61368,0.648241 -0.739563,0.759765 -1.542237,1.454223 -2.417111,2.055557 -0.209062,0.139177 -0.415512,0.28236 -0.627187,0.417531 -1.292399,0.825297 -2.657666,1.530453 -4.009343,2.251393 -0.801134,0.390858 -1.074871,0.544452 -1.91298,0.870976 -1.402243,0.546308 -2.86739,0.927492 -4.369714,1.053785 -0.384424,0.01106 -0.768804,0.04259 -1.153271,0.03319 C 12.17369,24.032147 11.429346,23.936999 10.718402,23.754895 10.373667,23.666593 10.034045,23.55626 9.7020318,23.428172 9.3779228,23.303134 8.9322025,22.698986 8.7533286,22.996787 8.5756138,23.292658 9.3476013,23.347968 9.6447379,23.523559 9.3660223,23.327844 9.0786708,23.143885 8.8085916,22.936415 7.8742462,22.218668 7.0440324,21.349347 6.4495674,20.327225 6.3310216,20.123398 6.2354623,19.907043 6.1284098,19.696952 6.0552099,19.501724 5.970706,19.310368 5.9088101,19.111268 5.7522429,18.607639 5.6689989,18.04714 5.7699965,17.524596 Z" />
  </g>
</svg>
